# xmcd
#
# Track frame offsets:
#  150
#  19030
#  35667
#  55321
#  70583
#  91309
#  107626
#  125466
#  143187
#  165310
#
# Disc length: 2524 seconds
#
# Revision: 0
# Processed by: cddbd v1.5.1PL2 Copyright (c) Steve Scherf et al.
# Submitted via: Collectorz.com_Music_Collector 6.10
#
DISCID=7e09da0a
DTITLE=Lee Shot Williams - Starts With A P
DYEAR=2006
DGENRE=Soul
TTITLE0=Everything I Like To Eat Starts With A P
TTITLE1=You've Been Lying
TTITLE2=Meat Man
TTITLE3=It's Your Party
TTITLE4=Everybody Wants To Go To Heaven
TTITLE5=You Don't Have To Be A Freak To Do Freaky Things
TTITLE6=Who's Knockin' Boots?
TTITLE7=It's Not What You Got, It's What You Do With It
TTITLE8=I Never Loved A Woman The Way I Love You
TTITLE9=Why Am I Always At The End Of Your Love Line?
EXTD=
EXTT0=
EXTT1=
EXTT2=
EXTT3=
EXTT4=
EXTT5=
EXTT6=
EXTT7=
EXTT8=
EXTT9=
PLAYORDER=
